<svg xmlns="http://www.w3.org/2000/svg" viewBox="0 0 315.29 17.34"><defs><style>.cls-1{fill:#1d1d1b;opacity:0.5;}</style></defs><g id="Ebene_2" data-name="Ebene 2"><g id="Ebene_1-2" data-name="Ebene 1"><path class="cls-1" d="M315.29,17.34c-8.21,0-12.45-3.36-16.19-6.32-3.41-2.69-6.35-5-12.47-5s-9.07,2.33-12.48,5c-3.74,3-8,6.32-16.19,6.32S245.51,14,241.76,11c-3.4-2.69-6.34-5-12.47-5s-9.06,2.33-12.47,5c-3.74,3-8,6.32-16.19,6.32S188.18,14,184.43,11C181,8.33,178.09,6,172,6s-9.06,2.33-12.47,5c-3.74,3-8,6.32-16.19,6.32S130.85,14,127.11,11c-3.41-2.69-6.35-5-12.47-5s-9.06,2.33-12.47,5c-3.74,3-8,6.32-16.19,6.32S73.53,14,69.79,11c-3.41-2.69-6.35-5-12.47-5s-9.06,2.33-12.47,5c-3.74,3-8,6.32-16.19,6.32S16.21,14,12.47,11C9.06,8.33,6.12,6,0,6V0C8.21,0,12.45,3.36,16.19,6.32c3.41,2.69,6.35,5,12.47,5s9.06-2.33,12.47-5c3.74-3,8-6.32,16.19-6.32S69.77,3.36,73.51,6.32c3.41,2.69,6.35,5,12.47,5S95,9,98.45,6.32c3.74-3,8-6.32,16.19-6.32s12.45,3.36,16.19,6.32c3.41,2.69,6.35,5,12.47,5s9.06-2.33,12.47-5c3.74-3,8-6.32,16.19-6.32s12.45,3.36,16.2,6.32c3.4,2.69,6.34,5,12.47,5s9.06-2.33,12.47-5c3.74-3,8-6.32,16.19-6.32s12.45,3.36,16.2,6.32c3.4,2.69,6.34,5,12.47,5S267,9,270.43,6.32c3.74-3,8-6.32,16.2-6.32s12.45,3.36,16.19,6.32c3.41,2.69,6.35,5,12.47,5Z"/></g></g></svg>